<svg width="1200" height="1200" viewBox="0 0 1200 1200" fill="none" xmlns="http://www.w3.org/2000/svg">
<g clip-path="url(#clip0_1_44)">
<path d="M809.515 733.258L582.864 1125.77C582.864 1125.77 279.443 1129.47 131.541 843.051C-16.3612 556.629 152.729 322.75 152.729 322.75L383.229 721.987C383.229 721.987 443.546 846.459 599.482 846.549C725.65 846.621 789.67 764.583 809.515 733.258L816.421 721.299C816.421 721.299 814.198 725.867 809.515 733.258Z" fill="url(#paint0_linear_1_44)"/>
<path d="M609.65 351.645L1062.9 351.677C1062.9 351.677 1217.82 612.594 1043.72 883.892C869.623 1155.19 582.533 1125.69 582.533 1125.69L813.033 726.455C813.033 726.455 890.67 611.983 812.78 476.894C749.759 367.593 646.702 353.169 609.65 351.645L595.841 351.644C595.841 351.644 600.908 351.285 609.65 351.645Z" fill="url(#paint1_linear_1_44)"/>
<path d="M379.096 715.54L152.5 323C152.5 323 301 58.3757 623 73.4999C945 88.6242 1063 352 1063 352H602C602 352 464.046 342 386 477C322.854 586.228 361.89 682.69 379.096 715.54L386 727.5C386 727.5 383.156 723.29 379.096 715.54Z" fill="url(#paint2_linear_1_44)"/>
</g>
<defs>
<linearGradient id="paint0_linear_1_44" x1="60" y1="454" x2="839" y2="1127.5" gradientUnits="userSpaceOnUse">
<stop stop-color="#FFC61B"/>
<stop offset="1" stop-color="#E5A014"/>
</linearGradient>
<linearGradient id="paint1_linear_1_44" x1="595.5" y1="1251.5" x2="1126.5" y2="79.5" gradientUnits="userSpaceOnUse">
<stop stop-color="#FFD06B"/>
<stop offset="1" stop-color="#DA9B13"/>
</linearGradient>
<linearGradient id="paint2_linear_1_44" x1="1101" y1="210.5" x2="18.5" y2="501" gradientUnits="userSpaceOnUse">
<stop stop-color="#EA351D"/>
<stop offset="1" stop-color="#D63C28"/>
</linearGradient>
<clipPath id="clip0_1_44">
<rect width="1200" height="1200" fill="white"/>
</clipPath>
</defs>
</svg>
