<svg width="408" height="436" viewBox="0 0 408 436" fill="none" xmlns="http://www.w3.org/2000/svg">
<g filter="url(#filter0_d_1_32)">
<path d="M182 162C185.314 162 188 164.686 188 168V248C188 251.314 185.314 254 182 254H133V274H272V254H222C218.686 254 216 251.314 216 248V168C216 164.686 218.686 162 222 162H376C379.314 162 382 164.686 382 168V248C382 251.314 379.314 254 376 254H327V274H398C401.314 274 404 276.686 404 280V309C404 312.314 401.314 315 398 315H327V336H376C379.314 336 382 338.686 382 342V422C382 425.314 379.314 428 376 428H222C218.686 428 216 425.314 216 422V342C216 338.686 218.686 336 222 336H272V315H133V336H182C185.314 336 188 338.686 188 342V422C188 425.314 185.314 428 182 428H28C24.6863 428 22 425.314 22 422V342C22 338.686 24.6863 336 28 336H78V315H10C6.68629 315 4 312.314 4 309V280C4 276.686 6.68629 274 10 274H78V254H28C24.6863 254 22 251.314 22 248V168C22 164.686 24.6863 162 28 162H182ZM63 396H147V368H63V396ZM257 396H341V368H257V396ZM63 222H147V194H63V222ZM257 222H341V194H257V222ZM126 0C129.314 0 132 2.68629 132 6V39.5H191.5V74.5C191.5 77.8137 188.814 80.5 185.5 80.5H132V104H185.5C188.814 104 191.5 106.686 191.5 110V137C191.5 140.314 188.814 143 185.5 143H28.5C25.1863 143 22.5 140.314 22.5 137V110C22.5 106.686 25.1863 104 28.5 104H80.5V80.5L17.9121 79.5859C14.633 79.5379 12 76.8664 12 73.5869V45.5C12 42.1863 14.6863 39.5 18 39.5H80.5V6C80.5 2.68629 83.1863 0 86.5 0H126ZM319 0C322.314 0 325 2.68629 325 6V39.5H387.5C390.814 39.5 393.5 42.1863 393.5 45.5V73.5869C393.5 76.8664 390.867 79.5379 387.588 79.5859L325 80.5V104H377C380.314 104 383 106.686 383 110V137C383 140.314 380.314 143 377 143H220C216.686 143 214 140.314 214 137V110C214 106.686 216.686 104 220 104H273.5V80.5H220C216.686 80.5 214 77.8137 214 74.5V39.5H273.5V6C273.5 2.68629 276.186 0 279.5 0H319Z" fill="#FFBF21"/>
</g>
<defs>
<filter id="filter0_d_1_32" x="0" y="0" width="408" height="436" filterUnits="userSpaceOnUse" color-interpolation-filters="sRGB">
<feFlood flood-opacity="0" result="BackgroundImageFix"/>
<feColorMatrix in="SourceAlpha" type="matrix" values="0 0 0 0 0 0 0 0 0 0 0 0 0 0 0 0 0 0 127 0" result="hardAlpha"/>
<feOffset dy="4"/>
<feGaussianBlur stdDeviation="2"/>
<feComposite in2="hardAlpha" operator="out"/>
<feColorMatrix type="matrix" values="0 0 0 0 0 0 0 0 0 0 0 0 0 0 0 0 0 0 0.25 0"/>
<feBlend mode="normal" in2="BackgroundImageFix" result="effect1_dropShadow_1_32"/>
<feBlend mode="normal" in="SourceGraphic" in2="effect1_dropShadow_1_32" result="shape"/>
</filter>
</defs>
</svg>
